<svg width="316" height="22" viewBox="0 0 316 22" fill="none" xmlns="http://www.w3.org/2000/svg">
<path d="M113.09 17L112.46 15.02H107.78L107.15 17H104L108.284 4.4H111.956L116.24 17H113.09ZM108.644 12.32H111.596L110.12 7.694L108.644 12.32ZM140.654 4.4H143.534V17H140.654V11.996H136.694V17H133.814V4.4H136.694V9.224H140.654V4.4ZM151.697 4.4H154.577V17H151.697V4.4ZM172.93 17H169.654L165.622 11.168V17H162.742V4.4H165.622V9.872L169.474 4.4H172.75L168.502 10.538L172.93 17ZM180.01 4.4H182.89V17H180.01V4.4ZM198.075 4.4H200.955V17H198.795L193.935 10.16V17H191.055V4.4H193.215L198.075 11.24V4.4ZM221.587 9.98V11.06C221.587 12.944 220.999 14.45 219.823 15.578C218.659 16.694 217.177 17.252 215.377 17.252C213.421 17.252 211.795 16.622 210.499 15.362C209.215 14.102 208.573 12.554 208.573 10.718C208.573 8.882 209.209 7.328 210.481 6.056C211.765 4.784 213.331 4.148 215.179 4.148C216.355 4.148 217.429 4.412 218.401 4.94C219.385 5.468 220.147 6.164 220.687 7.028L218.239 8.432C217.963 8 217.549 7.646 216.997 7.37C216.457 7.094 215.845 6.956 215.161 6.956C214.093 6.956 213.205 7.31 212.497 8.018C211.801 8.726 211.453 9.632 211.453 10.736C211.453 11.828 211.813 12.722 212.533 13.418C213.253 14.102 214.213 14.444 215.413 14.444C217.081 14.444 218.155 13.796 218.635 12.5H215.269V9.98H221.587ZM252.185 9.98V11.06C252.185 12.944 251.597 14.45 250.421 15.578C249.257 16.694 247.775 17.252 245.975 17.252C244.019 17.252 242.393 16.622 241.097 15.362C239.813 14.102 239.171 12.554 239.171 10.718C239.171 8.882 239.807 7.328 241.079 6.056C242.363 4.784 243.929 4.148 245.777 4.148C246.953 4.148 248.027 4.412 248.999 4.94C249.983 5.468 250.745 6.164 251.285 7.028L248.837 8.432C248.561 8 248.147 7.646 247.595 7.37C247.055 7.094 246.443 6.956 245.759 6.956C244.691 6.956 243.803 7.31 243.095 8.018C242.399 8.726 242.051 9.632 242.051 10.736C242.051 11.828 242.411 12.722 243.131 13.418C243.851 14.102 244.811 14.444 246.011 14.444C247.679 14.444 248.753 13.796 249.233 12.5H245.867V9.98H252.185ZM267.983 16.082C267.071 16.862 265.907 17.252 264.491 17.252C263.075 17.252 261.911 16.862 260.999 16.082C260.087 15.302 259.631 14.252 259.631 12.932V4.4H262.511V12.68C262.511 13.856 263.171 14.444 264.491 14.444C265.811 14.444 266.471 13.856 266.471 12.68V4.4H269.351V12.932C269.351 14.252 268.895 15.302 267.983 16.082ZM277.428 4.4H280.308V17H277.428V4.4ZM293.513 4.4C295.253 4.4 296.705 5.006 297.869 6.218C299.045 7.418 299.633 8.912 299.633 10.7C299.633 12.488 299.045 13.988 297.869 15.2C296.705 16.4 295.253 17 293.513 17H288.473V4.4H293.513ZM293.513 14.228C294.509 14.228 295.313 13.91 295.925 13.274C296.549 12.626 296.861 11.768 296.861 10.7C296.861 9.632 296.549 8.78 295.925 8.144C295.313 7.496 294.509 7.172 293.513 7.172H291.353V14.228H293.513ZM310.132 14.228H315.172V17H307.252V4.4H315.082V7.172H310.132V9.26H314.632V11.996H310.132V14.228Z" fill="#FBD784"/>
<rect y="10" width="72" height="2" fill="#FBD784"/>
</svg>
