<svg width="268" height="22" viewBox="0 0 268 22" fill="none" xmlns="http://www.w3.org/2000/svg">
<path d="M109.554 9.98V11.06C109.554 12.944 108.966 14.45 107.79 15.578C106.626 16.694 105.144 17.252 103.344 17.252C101.388 17.252 99.762 16.622 98.466 15.362C97.182 14.102 96.54 12.554 96.54 10.718C96.54 8.882 97.176 7.328 98.448 6.056C99.732 4.784 101.298 4.148 103.146 4.148C104.322 4.148 105.396 4.412 106.368 4.94C107.352 5.468 108.114 6.164 108.654 7.028L106.206 8.432C105.93 8 105.516 7.646 104.964 7.37C104.424 7.094 103.812 6.956 103.128 6.956C102.06 6.956 101.172 7.31 100.464 8.018C99.768 8.726 99.42 9.632 99.42 10.736C99.42 11.828 99.78 12.722 100.5 13.418C101.22 14.102 102.18 14.444 103.38 14.444C105.048 14.444 106.122 13.796 106.602 12.5H103.236V9.98H109.554ZM120.058 14.228H125.098V17H117.178V4.4H125.008V7.172H120.058V9.26H124.558V11.996H120.058V14.228ZM141.183 4.4V7.172H137.943V17H135.063V7.172H131.823V4.4H141.183ZM163.353 17.252C162.069 17.252 160.995 16.976 160.131 16.424C159.279 15.86 158.673 15.098 158.313 14.138L160.797 12.698C161.301 13.862 162.183 14.444 163.443 14.444C164.583 14.444 165.153 14.102 165.153 13.418C165.153 13.046 164.967 12.758 164.595 12.554C164.235 12.338 163.551 12.092 162.543 11.816C162.015 11.672 161.553 11.51 161.157 11.33C160.761 11.15 160.371 10.916 159.987 10.628C159.615 10.328 159.327 9.956 159.123 9.512C158.931 9.068 158.835 8.558 158.835 7.982C158.835 6.818 159.249 5.888 160.077 5.192C160.917 4.496 161.913 4.148 163.065 4.148C164.097 4.148 165.009 4.394 165.801 4.886C166.593 5.366 167.217 6.068 167.673 6.992L165.243 8.414C165.015 7.934 164.733 7.574 164.397 7.334C164.061 7.082 163.617 6.956 163.065 6.956C162.633 6.956 162.297 7.052 162.057 7.244C161.829 7.424 161.715 7.646 161.715 7.91C161.715 8.222 161.859 8.492 162.147 8.72C162.447 8.948 163.059 9.2 163.983 9.476C164.487 9.632 164.877 9.758 165.153 9.854C165.429 9.95 165.777 10.112 166.197 10.34C166.629 10.556 166.953 10.79 167.169 11.042C167.397 11.282 167.595 11.606 167.763 12.014C167.943 12.41 168.033 12.866 168.033 13.382C168.033 14.582 167.601 15.53 166.737 16.226C165.873 16.91 164.745 17.252 163.353 17.252ZM183.476 4.4V7.172H180.236V17H177.356V7.172H174.116V4.4H183.476ZM197.85 17L197.22 15.02H192.54L191.91 17H188.76L193.044 4.4H196.716L201 17H197.85ZM193.404 12.32H196.356L194.88 7.694L193.404 12.32ZM214.698 17L212.322 12.86H210.954V17H208.074V4.4H213.114C214.314 4.4 215.334 4.82 216.174 5.66C217.014 6.5 217.434 7.52 217.434 8.72C217.434 9.488 217.218 10.202 216.786 10.862C216.366 11.51 215.808 12.014 215.112 12.374L217.794 17H214.698ZM210.954 7.1V10.34H213.114C213.51 10.34 213.846 10.184 214.122 9.872C214.41 9.56 214.554 9.176 214.554 8.72C214.554 8.264 214.41 7.88 214.122 7.568C213.846 7.256 213.51 7.1 213.114 7.1H210.954ZM233.345 4.4V7.172H230.105V17H227.225V7.172H223.985V4.4H233.345ZM243.485 14.228H248.525V17H240.605V4.4H248.435V7.172H243.485V9.26H247.985V11.996H243.485V14.228ZM261.19 4.4C262.93 4.4 264.382 5.006 265.546 6.218C266.722 7.418 267.31 8.912 267.31 10.7C267.31 12.488 266.722 13.988 265.546 15.2C264.382 16.4 262.93 17 261.19 17H256.15V4.4H261.19ZM261.19 14.228C262.186 14.228 262.99 13.91 263.602 13.274C264.226 12.626 264.538 11.768 264.538 10.7C264.538 9.632 264.226 8.78 263.602 8.144C262.99 7.496 262.186 7.172 261.19 7.172H259.03V14.228H261.19Z" fill="#FBD784"/>
<rect y="10" width="72" height="2" fill="#FBD784"/>
</svg>
