<svg width="354" height="22" viewBox="0 0 354 22" fill="none" xmlns="http://www.w3.org/2000/svg">
<path d="M103.92 4.4H106.8V17H103.92V11.996H99.96V17H97.08V4.4H99.96V9.224H103.92V4.4ZM114.963 4.4H117.843V17H114.963V4.4ZM136.196 17H132.92L128.888 11.168V17H126.008V4.4H128.888V9.872L132.74 4.4H136.016L131.768 10.538L136.196 17ZM143.275 4.4H146.155V17H143.275V4.4ZM161.34 4.4H164.22V17H162.06L157.2 10.16V17H154.32V4.4H156.48L161.34 11.24V4.4ZM184.853 9.98V11.06C184.853 12.944 184.265 14.45 183.089 15.578C181.925 16.694 180.443 17.252 178.643 17.252C176.687 17.252 175.061 16.622 173.765 15.362C172.481 14.102 171.839 12.554 171.839 10.718C171.839 8.882 172.475 7.328 173.747 6.056C175.031 4.784 176.597 4.148 178.445 4.148C179.621 4.148 180.695 4.412 181.667 4.94C182.651 5.468 183.413 6.164 183.953 7.028L181.505 8.432C181.229 8 180.815 7.646 180.263 7.37C179.723 7.094 179.111 6.956 178.427 6.956C177.359 6.956 176.471 7.31 175.763 8.018C175.067 8.726 174.719 9.632 174.719 10.736C174.719 11.828 175.079 12.722 175.799 13.418C176.519 14.102 177.479 14.444 178.679 14.444C180.347 14.444 181.421 13.796 181.901 12.5H178.535V9.98H184.853ZM205.856 14.228H210.896V17H202.976V4.4H210.806V7.172H205.856V9.26H210.356V11.996H205.856V14.228ZM222.931 17.252C221.647 17.252 220.573 16.976 219.709 16.424C218.857 15.86 218.251 15.098 217.891 14.138L220.375 12.698C220.879 13.862 221.761 14.444 223.021 14.444C224.161 14.444 224.731 14.102 224.731 13.418C224.731 13.046 224.545 12.758 224.173 12.554C223.813 12.338 223.129 12.092 222.121 11.816C221.593 11.672 221.131 11.51 220.735 11.33C220.339 11.15 219.949 10.916 219.565 10.628C219.193 10.328 218.905 9.956 218.701 9.512C218.509 9.068 218.413 8.558 218.413 7.982C218.413 6.818 218.827 5.888 219.655 5.192C220.495 4.496 221.491 4.148 222.643 4.148C223.675 4.148 224.587 4.394 225.379 4.886C226.171 5.366 226.795 6.068 227.251 6.992L224.821 8.414C224.593 7.934 224.311 7.574 223.975 7.334C223.639 7.082 223.195 6.956 222.643 6.956C222.211 6.956 221.875 7.052 221.635 7.244C221.407 7.424 221.293 7.646 221.293 7.91C221.293 8.222 221.437 8.492 221.725 8.72C222.025 8.948 222.637 9.2 223.561 9.476C224.065 9.632 224.455 9.758 224.731 9.854C225.007 9.95 225.355 10.112 225.775 10.34C226.207 10.556 226.531 10.79 226.747 11.042C226.975 11.282 227.173 11.606 227.341 12.014C227.521 12.41 227.611 12.866 227.611 13.382C227.611 14.582 227.179 15.53 226.315 16.226C225.451 16.91 224.323 17.252 222.931 17.252ZM239.109 17.252C237.825 17.252 236.751 16.976 235.887 16.424C235.035 15.86 234.429 15.098 234.069 14.138L236.553 12.698C237.057 13.862 237.939 14.444 239.199 14.444C240.339 14.444 240.909 14.102 240.909 13.418C240.909 13.046 240.723 12.758 240.351 12.554C239.991 12.338 239.307 12.092 238.299 11.816C237.771 11.672 237.309 11.51 236.913 11.33C236.517 11.15 236.127 10.916 235.743 10.628C235.371 10.328 235.083 9.956 234.879 9.512C234.687 9.068 234.591 8.558 234.591 7.982C234.591 6.818 235.005 5.888 235.833 5.192C236.673 4.496 237.669 4.148 238.821 4.148C239.853 4.148 240.765 4.394 241.557 4.886C242.349 5.366 242.973 6.068 243.429 6.992L240.999 8.414C240.771 7.934 240.489 7.574 240.153 7.334C239.817 7.082 239.373 6.956 238.821 6.956C238.389 6.956 238.053 7.052 237.813 7.244C237.585 7.424 237.471 7.646 237.471 7.91C237.471 8.222 237.615 8.492 237.903 8.72C238.203 8.948 238.815 9.2 239.739 9.476C240.243 9.632 240.633 9.758 240.909 9.854C241.185 9.95 241.533 10.112 241.953 10.34C242.385 10.556 242.709 10.79 242.925 11.042C243.153 11.282 243.351 11.606 243.519 12.014C243.699 12.41 243.789 12.866 243.789 13.382C243.789 14.582 243.357 15.53 242.493 16.226C241.629 16.91 240.501 17.252 239.109 17.252ZM254.021 14.228H259.061V17H251.141V4.4H258.971V7.172H254.021V9.26H258.521V11.996H254.021V14.228ZM273.705 4.4H276.585V17H274.425L269.565 10.16V17H266.685V4.4H268.845L273.705 11.24V4.4ZM293.204 4.4V7.172H289.964V17H287.084V7.172H283.844V4.4H293.204ZM300.465 4.4H303.345V17H300.465V4.4ZM319.52 17L318.89 15.02H314.21L313.58 17H310.43L314.714 4.4H318.386L322.67 17H319.52ZM315.074 12.32H318.026L316.55 7.694L315.074 12.32ZM332.624 14.228H337.124V17H329.744V4.4H332.624V14.228ZM348.627 17.252C347.343 17.252 346.269 16.976 345.405 16.424C344.553 15.86 343.947 15.098 343.587 14.138L346.071 12.698C346.575 13.862 347.457 14.444 348.717 14.444C349.857 14.444 350.427 14.102 350.427 13.418C350.427 13.046 350.241 12.758 349.869 12.554C349.509 12.338 348.825 12.092 347.817 11.816C347.289 11.672 346.827 11.51 346.431 11.33C346.035 11.15 345.645 10.916 345.261 10.628C344.889 10.328 344.601 9.956 344.397 9.512C344.205 9.068 344.109 8.558 344.109 7.982C344.109 6.818 344.523 5.888 345.351 5.192C346.191 4.496 347.187 4.148 348.339 4.148C349.371 4.148 350.283 4.394 351.075 4.886C351.867 5.366 352.491 6.068 352.947 6.992L350.517 8.414C350.289 7.934 350.007 7.574 349.671 7.334C349.335 7.082 348.891 6.956 348.339 6.956C347.907 6.956 347.571 7.052 347.331 7.244C347.103 7.424 346.989 7.646 346.989 7.91C346.989 8.222 347.133 8.492 347.421 8.72C347.721 8.948 348.333 9.2 349.257 9.476C349.761 9.632 350.151 9.758 350.427 9.854C350.703 9.95 351.051 10.112 351.471 10.34C351.903 10.556 352.227 10.79 352.443 11.042C352.671 11.282 352.869 11.606 353.037 12.014C353.217 12.41 353.307 12.866 353.307 13.382C353.307 14.582 352.875 15.53 352.011 16.226C351.147 16.91 350.019 17.252 348.627 17.252Z" fill="#FBD784"/>
<rect y="10" width="72" height="2" fill="#FBD784"/>
</svg>
